<svg width="205" height="205" viewBox="0 0 205 205" fill="none" xmlns="http://www.w3.org/2000/svg">
<path d="M102.44 204.921H101.99C45.7532 204.921 0 159.155 0 102.902V102.452C0 46.1985 45.7532 0.431763 101.99 0.431763H102.44C158.676 0.431763 204.429 46.1985 204.429 102.452V102.902C204.429 159.155 158.676 204.921 102.44 204.921ZM101.99 7.35352C49.566 7.35352 6.91972 50.0124 6.91972 102.452V102.902C6.91972 155.341 49.566 198 101.99 198H102.44C154.863 198 197.51 155.341 197.51 102.902V102.452C197.51 50.0124 154.863 7.35352 102.44 7.35352H101.99Z" fill="black"/>
<path d="M114.324 69.3424V93.3324H143.992L139.294 125.649H114.324V200.103C109.318 200.798 104.195 201.161 98.9961 201.161C92.9946 201.161 87.1011 200.682 81.3618 199.756V125.649H54V93.3324H81.3618V63.9796C81.3618 45.7691 96.1188 31 114.332 31V31.0154C114.386 31.0154 114.432 31 114.486 31H144V58.9485H124.715C118.983 58.9485 114.332 63.6015 114.332 69.3347L114.324 69.3424Z" fill="black"/>
</svg>
