<svg width="22" height="20" viewBox="0 0 22 20" fill="none" xmlns="http://www.w3.org/2000/svg">
<path d="M11 -4.76837e-07C8.625 -4.76837e-07 6.35 0.849999 4.525 2.35C2.725 3.9 1.5 6.025 1.125 8.35C0.75 10.675 1.225 13.075 2.45 15.075C3.65 17.1 5.575 18.65 7.85 19.375C8.35 19.475 8.525 19.15 8.525 18.9C8.525 18.65 8.5 17.875 8.5 17.05C5.725 17.65 5.15 15.875 5.15 15.875C4.675 14.725 4.025 14.425 4.025 14.425C3.125 13.8 4.075 13.825 4.075 13.825C5.1 13.9 5.65 14.85 5.65 14.85C6.5 16.35 7.95 15.925 8.55 15.65C8.65 15.025 8.875 14.575 9.175 14.35C6.95 14.075 4.625 13.225 4.625 9.425C4.6 8.45 4.95 7.475 5.65 6.75C5.55 6.5 5.2 5.5 5.75 4.125C5.75 4.125 6.575 3.85 8.5 5.15C10.15 4.675 11.85 4.675 13.5 5.15C15.4 3.85 16.25 4.125 16.25 4.125C16.775 5.5 16.45 6.5 16.35 6.75C17.025 7.475 17.375 8.45 17.375 9.425C17.375 13.25 15.05 14.075 12.8 14.35C13.175 14.65 13.5 15.25 13.5 16.175C13.5 17.5 13.475 18.575 13.475 18.9C13.475 19.15 13.65 19.475 14.15 19.375C16.425 18.65 18.35 17.1 19.55 15.075C20.775 13.075 21.25 10.675 20.875 8.35C20.5 6.025 19.275 3.9 17.475 2.35C15.65 0.849999 13.35 -4.76837e-07 11 -4.76837e-07Z" fill="black"/>
</svg>
