<svg width="301" height="301" viewBox="0 0 301 301" fill="none" xmlns="http://www.w3.org/2000/svg">
<path d="M150.375 300.139H149.715C67.1875 300.139 0.0447998 232.976 0.0447998 150.425V149.765C0.0447998 67.2131 67.1875 0.0506592 149.715 0.0506592H150.375C232.902 0.0506592 300.045 67.2131 300.045 149.765V150.425C300.045 232.976 232.902 300.139 150.375 300.139ZM149.715 10.2083C72.7827 10.2083 10.1995 72.81 10.1995 149.765V150.425C10.1995 227.38 72.7827 289.981 149.715 289.981H150.375C227.307 289.981 289.89 227.38 289.89 150.425V149.765C289.89 72.81 227.307 10.2083 150.375 10.2083H149.715Z" fill="black"/>
<path d="M60.0182 145.143C60.4244 144.94 60.8307 144.747 61.2268 144.564C68.1117 141.374 75.0879 138.388 82.0541 135.402C82.4298 135.402 83.0592 134.965 83.4146 134.823C83.9528 134.589 84.4911 134.366 85.0293 134.132C86.0651 133.685 87.1009 133.248 88.1265 132.801C90.1981 131.917 92.2594 131.034 94.3309 130.15C98.4639 128.383 102.597 126.615 106.73 124.838C114.996 121.303 123.272 117.758 131.538 114.223C139.804 110.688 148.08 107.143 156.346 103.608C164.612 100.073 172.888 96.5282 181.154 92.9933C189.419 89.4584 197.696 85.9135 205.962 82.3786C207.8 81.5863 209.79 80.408 211.76 80.0626C213.415 79.768 215.03 79.1993 216.695 78.8844C219.853 78.2851 223.336 78.0413 226.362 79.3516C227.408 79.8087 228.373 80.4485 229.175 81.251C233.014 85.0499 232.475 91.2869 231.663 96.6298C226.007 133.868 220.351 171.116 214.684 208.354C213.913 213.464 212.856 219.071 208.825 222.301C205.413 225.033 200.559 225.338 196.345 224.18C192.131 223.012 188.414 220.564 184.769 218.156C169.648 208.141 154.518 198.125 139.398 188.11C135.803 185.733 131.802 182.625 131.843 178.308C131.863 175.707 133.416 173.391 135.001 171.329C148.141 154.183 167.099 142.4 181.204 126.046C183.195 123.741 184.759 119.576 182.027 118.245C180.402 117.453 178.534 118.53 177.051 119.556C158.407 132.507 139.773 145.468 121.129 158.419C115.047 162.644 108.669 166.992 101.338 168.028C94.7779 168.962 88.1774 167.134 81.8307 165.265C76.5096 163.701 71.1985 162.096 65.908 160.44C63.0951 159.567 60.1908 158.622 58.0177 156.641C55.8446 154.661 54.5958 151.329 55.9057 148.688C56.7283 147.032 58.3226 145.986 59.9981 145.133L60.0182 145.143Z" fill="black"/>
</svg>
