<svg width="206" height="205" viewBox="0 0 206 205" fill="none" xmlns="http://www.w3.org/2000/svg">
<path d="M103.168 204.49H102.718C46.4818 204.49 0.728516 158.723 0.728516 102.47V102.02C0.728516 45.7668 46.4818 0 102.718 0H103.168C159.405 0 205.158 45.7668 205.158 102.02V102.47C205.158 158.723 159.405 204.49 103.168 204.49ZM102.718 6.92176C50.2946 6.92176 7.64824 49.5807 7.64824 102.02V102.47C7.64824 154.909 50.2946 197.568 102.718 197.568H103.168C155.592 197.568 198.238 154.909 198.238 102.47V102.02C198.238 49.5807 155.592 6.92176 103.168 6.92176H102.718Z" fill="black"/>
<path d="M49.2077 60.43C46.3975 57.8209 45 54.5912 45 50.7486C45 46.9059 46.405 43.5341 49.2077 40.9174C52.0179 38.3083 55.6352 37 60.0672 37C64.4992 37 67.9746 38.3083 70.7773 40.9174C73.5875 43.5266 74.985 46.8087 74.985 50.7486C74.985 54.6884 73.58 57.8209 70.7773 60.43C67.9671 63.0392 64.402 64.3475 60.0672 64.3475C55.7324 64.3475 52.0179 63.0392 49.2077 60.43ZM72.6233 75.3971V155.391H47.3542V75.3971H72.6233Z" fill="black"/>
<path d="M156.741 83.2991C162.25 89.28 165 97.4888 165 107.94V153.978H141.002V111.185C141.002 105.914 139.634 101.817 136.906 98.9017C134.178 95.9861 130.501 94.5207 125.897 94.5207C121.293 94.5207 117.616 95.9786 114.888 98.9017C112.16 101.817 110.792 105.914 110.792 111.185V153.978H86.6518V75.1728H110.792V85.6243C113.236 82.1404 116.532 79.3892 120.673 77.3632C124.813 75.3372 129.469 74.3279 134.649 74.3279C143.872 74.3279 151.241 77.3183 156.741 83.2991Z" fill="black"/>
</svg>
