<svg width="205" height="206" viewBox="0 0 205 206" fill="none" xmlns="http://www.w3.org/2000/svg">
<path d="M102.965 205.211H102.516C46.279 205.211 0.525818 159.444 0.525818 103.191V102.741C0.525818 46.4881 46.279 0.721313 102.516 0.721313H102.965C159.202 0.721313 204.955 46.4881 204.955 102.741V103.191C204.955 159.444 159.202 205.211 102.965 205.211ZM102.516 7.64307C50.0918 7.64307 7.44554 50.302 7.44554 102.741V103.191C7.44554 155.63 50.0918 198.289 102.516 198.289H102.965C155.389 198.289 198.035 155.63 198.035 103.191V102.741C198.035 50.302 155.389 7.64307 102.965 7.64307H102.516Z" fill="black"/>
<path d="M161.306 97.7229C158.648 67.7378 133.398 44.1484 102.744 44.1484C70.3182 44.1484 43.9333 70.541 43.9333 102.963C43.9333 114.868 47.4969 125.964 53.607 135.232L46.2791 151.477C44.3485 155.748 47.7875 160.496 52.4445 160.005L79.729 157.098C86.8009 160.116 94.5787 161.784 102.744 161.784C104.82 161.784 106.882 161.673 108.903 161.465C110.771 161.265 112.605 160.981 114.418 160.621C141.162 155.208 161.382 131.577 161.541 103.302V102.963C161.541 101.204 161.465 99.4395 161.306 97.7229ZM135.405 89.7213L123.06 108.77L116.528 118.848C115.137 120.994 112.21 121.506 110.176 119.956L99.3464 111.746L92.6688 106.687C92.1291 106.278 91.3748 106.292 90.8489 106.721L74.4631 120.094C71.8267 122.247 68.2215 119.007 70.0691 116.155L81.6319 98.325L88.1641 88.24C89.5549 86.0942 92.4751 85.5821 94.5164 87.1257L105.028 95.0995L111.705 100.152C112.245 100.568 112.999 100.554 113.525 100.118L131.004 85.7829C133.641 83.6233 137.26 86.8626 135.405 89.7213Z" fill="black"/>
</svg>
