<svg width="205" height="206" viewBox="0 0 205 206" fill="none" xmlns="http://www.w3.org/2000/svg">
<path d="M102.965 205.211H102.516C46.279 205.211 0.525818 159.444 0.525818 103.191V102.741C0.525818 46.4881 46.279 0.721313 102.516 0.721313H102.965C159.202 0.721313 204.955 46.4881 204.955 102.741V103.191C204.955 159.444 159.202 205.211 102.965 205.211ZM102.516 7.64307C50.0918 7.64307 7.44554 50.302 7.44554 102.741V103.191C7.44554 155.63 50.0918 198.289 102.516 198.289H102.965C155.389 198.289 198.035 155.63 198.035 103.191V102.741C198.035 50.302 155.389 7.64307 102.965 7.64307H102.516Z" fill="black"/>
<path d="M169.74 96.2197C166.803 63.0751 138.892 37 105.008 37C69.1651 37 40 66.1737 40 102.011C40 115.171 43.9391 127.436 50.6931 137.681L42.593 155.638C40.4589 160.359 44.2604 165.608 49.408 165.064L79.5675 161.851C87.3847 165.187 95.982 167.031 105.008 167.031C107.302 167.031 109.582 166.908 111.815 166.679C113.88 166.457 115.907 166.143 117.911 165.745C147.474 159.762 169.824 133.641 170 102.386V102.011C170 100.068 169.916 98.1172 169.74 96.2197ZM141.11 87.375L127.465 108.431L120.244 119.571C118.707 121.943 115.471 122.509 113.223 120.795L101.252 111.721L93.8709 106.128C93.2743 105.676 92.4405 105.692 91.8592 106.166L73.7468 120.948C70.8326 123.327 66.8475 119.747 68.8898 116.595L81.671 96.8853L88.8915 85.7376C90.4289 83.3657 93.6567 82.7996 95.9131 84.5058L107.532 93.3199L114.913 98.9053C115.51 99.3643 116.343 99.349 116.925 98.867L136.246 83.0216C139.16 80.6344 143.16 84.2151 141.11 87.375Z" fill="black"/>
</svg>
