<svg width="227" height="227" viewBox="0 0 227 227" fill="none" xmlns="http://www.w3.org/2000/svg">
<path d="M113.293 226.117H112.796C50.6256 226.117 0.0447998 175.521 0.0447998 113.333V112.835C0.0447998 50.6464 50.6256 0.0506592 112.796 0.0506592H113.293C175.464 0.0506592 226.045 50.6464 226.045 112.835V113.333C226.045 175.521 175.464 226.117 113.293 226.117ZM112.796 7.70278C54.8407 7.70278 7.69467 54.8627 7.69467 112.835V113.333C7.69467 171.305 54.8407 218.465 112.796 218.465H113.293C171.249 218.465 218.395 171.305 218.395 113.333V112.835C218.395 54.8627 171.249 7.70278 113.293 7.70278H112.796Z" fill="black"/>
<path d="M32.9408 112.603C33.2853 112.43 33.6299 112.267 33.9658 112.112C39.8046 109.407 45.7209 106.874 51.6286 104.341C51.9473 104.341 52.481 103.971 52.7825 103.85C53.2389 103.652 53.6954 103.463 54.1518 103.265C55.0302 102.886 55.9087 102.515 56.7785 102.136C58.5353 101.387 60.2833 100.637 62.0402 99.8879C65.5452 98.389 69.0501 96.8901 72.5551 95.3826C79.5651 92.3848 86.5839 89.3782 93.5939 86.3804C100.604 83.3826 107.622 80.3763 114.632 77.3785C121.643 74.3807 128.661 71.3743 135.671 68.3765C142.681 65.3787 149.7 62.3724 156.71 59.3746C158.269 58.7027 159.956 57.7034 161.627 57.4105C163.031 57.1607 164.4 56.6783 165.812 56.4113C168.491 55.9031 171.445 55.6963 174.011 56.8075C174.898 57.1952 175.716 57.7378 176.396 58.4183C179.652 61.6401 179.195 66.9294 178.506 71.4605C173.709 103.041 168.913 134.629 164.107 166.21C163.453 170.543 162.557 175.298 159.138 178.037C156.245 180.354 152.128 180.613 148.554 179.631C144.98 178.64 141.829 176.564 138.737 174.522C125.914 166.029 113.082 157.535 100.259 149.041C97.2109 147.025 93.8179 144.389 93.8523 140.728C93.8695 138.523 95.187 136.559 96.5305 134.81C107.674 120.269 123.752 110.277 135.714 96.4076C137.402 94.4522 138.728 90.9204 136.412 89.7919C135.034 89.12 133.449 90.0329 132.192 90.903C116.381 101.886 100.578 112.878 84.7668 123.861C79.6084 127.445 74.2001 131.132 67.9824 132.011C62.4192 132.803 56.8216 131.253 51.4392 129.667C46.9266 128.341 42.4225 126.98 37.9357 125.576C35.5503 124.835 33.0873 124.034 31.2443 122.354C29.4014 120.674 28.3423 117.849 29.4532 115.609C30.1508 114.205 31.5029 113.318 32.9238 112.594L32.9408 112.603Z" fill="black"/>
</svg>
