<svg width="205" height="205" viewBox="0 0 205 205" fill="none" xmlns="http://www.w3.org/2000/svg">
<path d="M102.8 204.54H102.351C46.1141 204.54 0.36084 158.774 0.36084 102.52V102.07C0.36084 45.8173 46.1141 0.0506592 102.351 0.0506592H102.8C159.037 0.0506592 204.79 45.8173 204.79 102.07V102.52C204.79 158.774 159.037 204.54 102.8 204.54ZM102.351 6.97242C49.9268 6.97242 7.28056 49.6312 7.28056 102.07V102.52C7.28056 154.96 49.9268 197.618 102.351 197.618H102.8C155.224 197.618 197.871 154.96 197.871 102.52V102.07C197.871 49.6312 155.224 6.97242 102.8 6.97242H102.351Z" fill="black"/>
<path d="M124.71 130.624C98.1867 130.624 76.6076 109.031 76.6004 82.4997C76.6076 75.7742 82.0823 70.3052 88.7913 70.3052C89.4811 70.3052 90.1635 70.3633 90.817 70.4795C92.2546 70.7192 93.6197 71.2058 94.8758 71.9393C95.0574 72.0483 95.1808 72.2227 95.2098 72.4261L98.0125 90.0967C98.0488 90.3073 97.9834 90.5107 97.8455 90.6632C96.2989 92.3772 94.324 93.6121 92.124 94.2294L91.0639 94.5271L91.4632 95.5511C95.0791 104.761 102.442 112.118 111.656 115.749L112.679 116.156L112.977 115.096C113.594 112.895 114.828 110.92 116.542 109.373C116.665 109.256 116.832 109.198 116.999 109.198C117.036 109.198 117.072 109.198 117.116 109.205L134.781 112.009C134.992 112.045 135.166 112.162 135.275 112.343C136.001 113.6 136.487 114.972 136.734 116.41C136.851 117.049 136.901 117.725 136.901 118.429C136.901 125.148 131.434 130.617 124.71 130.624Z" fill="black"/>
<path d="M171.746 94.4834C170.316 78.3161 162.91 63.3182 150.893 52.2567C138.804 41.1299 123.12 35 106.718 35C70.7191 35 41.4292 64.2986 41.4292 100.308C41.4292 112.394 44.7618 124.167 51.0714 134.422L37 165.58L82.0533 160.779C89.8877 163.99 98.1795 165.616 106.711 165.616C108.954 165.616 111.256 165.5 113.565 165.261C115.598 165.043 117.653 164.723 119.671 164.317C149.818 158.223 171.826 131.459 172 100.657V100.308C172 98.3473 171.913 96.3863 171.739 94.4906L171.746 94.4834ZM83.7886 147.103L58.8623 149.762L66.3046 133.268L64.8161 131.27C64.7072 131.125 64.5983 130.98 64.4749 130.813C58.0128 121.886 54.6002 111.341 54.6002 100.316C54.6002 71.5688 77.9799 48.1822 106.718 48.1822C133.641 48.1822 156.462 69.1939 158.662 96.0159C158.778 97.454 158.843 98.8992 158.843 100.323C158.843 100.73 158.836 101.129 158.829 101.557C158.277 125.605 141.483 146.028 117.987 151.229C116.194 151.628 114.357 151.933 112.527 152.129C110.624 152.347 108.671 152.456 106.733 152.456C99.8277 152.456 93.1187 151.12 86.7801 148.476C86.0758 148.193 85.3859 147.888 84.7397 147.575L83.7959 147.118L83.7886 147.103Z" fill="black"/>
</svg>
