<svg width="205" height="205" viewBox="0 0 205 205" fill="none" xmlns="http://www.w3.org/2000/svg">
<path d="M102.75 204.111H102.301C46.1829 204.111 0.525818 158.44 0.525818 102.305V101.856C0.525818 45.7211 46.1829 0.0506592 102.301 0.0506592H102.75C158.869 0.0506592 204.526 45.7211 204.526 101.856V102.305C204.526 158.44 158.869 204.111 102.75 204.111ZM102.301 6.95788C49.9877 6.95788 7.43101 49.527 7.43101 101.856V102.305C7.43101 154.634 49.9877 197.203 102.301 197.203H102.75C155.064 197.203 197.621 154.634 197.621 102.305V101.856C197.621 49.527 155.064 6.95788 102.75 6.95788H102.301Z" fill="black"/>
<path d="M43.9653 46L91.4539 109.51L43.6695 161.148H54.427L96.2663 115.941L130.068 161.148H166.669L116.511 94.0656L160.991 46H150.234L111.706 87.6353L80.5738 46H43.9725H43.9653ZM59.7804 53.9245H76.5912L150.84 153.224H134.029L59.7804 53.9245Z" fill="black"/>
</svg>
